<svg id="logo-pb" xmlns="http://www.w3.org/2000/svg" viewBox="0 0 172.67 106.01"><defs><style>.cls-1{fill:#333;}</style></defs><title>logo-pb</title><path id="b" class="cls-1" d="M166.87,59.44a27.64,27.64,0,0,0-15.59-8.81q2.71-1.2,3.77-1.73A34.69,34.69,0,0,0,159,46.25q7.83-6,7.83-18.38A27,27,0,0,0,159.6,9.49Q155.79,5.12,148,2.56A59.18,59.18,0,0,0,129.58,0H89V90h17V60h26c15,0,22.45,4.73,22.45,14.07,0,5.73-1.73,10.2-5.2,12.26a29.19,29.19,0,0,1-15,3.67H106v16h28.7c14.36,0,24.51-3.61,30.44-10.14a28.75,28.75,0,0,0,7.53-19.61C172.67,69.63,170.73,63.91,166.87,59.44ZM129,44H106V17h23.12c6.53,0,11.35.82,14.46,3s4.67,5.84,4.67,10.86Q148.26,44,129,44Z" transform="translate(0 0.01)"/><path id="p" class="cls-1" d="M71.88,9.19Q60.88,0,36.92,0H18V17H36.62c9.64,0,16.72,1.07,21.24,4.08S64.65,29,64.65,36.3,62.86,48.85,59.3,52.61,49,58,39.18,58H18V17H0v89H18V75H37.23c15.47,0,26.94-3.25,34.43-9.18S82.88,50.41,82.88,37.66,79.21,15.32,71.88,9.19Z" transform="translate(0 0.01)"/><path id="studio" class="cls-1" d="M28.21,94.82a2.57,2.57,0,0,0-1.4.35,1.16,1.16,0,0,0-.55,1.05,1.22,1.22,0,0,0,.55,1.08,8.27,8.27,0,0,0,2.33.8,6.4,6.4,0,0,1,2.68,1.21,2.86,2.86,0,0,1,.9,2.29,3,3,0,0,1-1.14,2.46,4.55,4.55,0,0,1-3,.94,7,7,0,0,1-4.81-1.87L25,101.65a5.51,5.51,0,0,0,3.64,1.52,2.49,2.49,0,0,0,1.5-.41,1.27,1.27,0,0,0,.55-1.08,1.21,1.21,0,0,0-.52-1,5.47,5.47,0,0,0-1.8-.68,16.14,16.14,0,0,1-1.94-.56,4.38,4.38,0,0,1-1.17-.67,2.8,2.8,0,0,1-1-2.38,2.9,2.9,0,0,1,1.17-2.47A4.7,4.7,0,0,1,28.28,93a6.94,6.94,0,0,1,2.2.36,5.76,5.76,0,0,1,1.89,1l-1,1.47A4,4,0,0,0,30,95.07,5.34,5.34,0,0,0,28.21,94.82Zm14.27,0.26v9.78h-2V95.08H37V93.3h9v1.79H42.48Zm11.2,7.13a3,3,0,0,0,4.24.06l0.06-.06a3.74,3.74,0,0,0,.79-2.52V93.3h2v6.49a5.15,5.15,0,0,1-1.37,3.85,5.28,5.28,0,0,1-7,0A5.15,5.15,0,0,1,51,99.79V93.3h2v6.4a3.74,3.74,0,0,0,.65,2.52h0ZM75.52,94.8A5.4,5.4,0,0,1,77.2,99a5.67,5.67,0,0,1-1.62,4.27,6.88,6.88,0,0,1-5,1.57H66.77V93.3h4a6.89,6.89,0,0,1,4.75,1.51h0Zm-0.3,4.26q0-4-4.55-4h-2V103h2.17a4.66,4.66,0,0,0,3.22-1,3.76,3.76,0,0,0,1.16-2.93h0Zm7.46-5.77h2v11.57h-2V93.3h0Zm17.82,10a6.34,6.34,0,0,1-8.67,0,6.07,6.07,0,0,1,0-8.54,6.35,6.35,0,0,1,8.67,0,6.07,6.07,0,0,1,0,8.52v0ZM99.08,96a4.06,4.06,0,0,0-5.74-.07L93.27,96a4.32,4.32,0,0,0,0,5.94A4.06,4.06,0,0,0,99,102l0.07-.07A4.32,4.32,0,0,0,99.08,96Z" transform="translate(0 0.01)"/></svg>