<svg id="Studio" xmlns="http://www.w3.org/2000/svg" viewBox="0 0 40.34 30.73"><defs><style>.cls-1{fill:#333;}</style></defs><title>logo-studio</title><path id="studio-2" data-name="studio" class="cls-1" d="M1243.32,191.87l1.79-2.14a6,6,0,0,0,3.77,1.4c0.86,0,1.33-.3,1.33-0.8v0c0-.48-0.38-0.75-2-1.11-2.48-.57-4.39-1.26-4.39-3.66v0c0-2.16,1.71-3.72,4.5-3.72a7.32,7.32,0,0,1,4.79,1.55l-1.61,2.28a5.84,5.84,0,0,0-3.26-1.15c-0.78,0-1.16.33-1.16,0.75v0c0,0.53.4,0.76,2,1.13,2.68,0.58,4.34,1.45,4.34,3.62v0c0,2.38-1.88,3.79-4.7,3.79A8.12,8.12,0,0,1,1243.32,191.87Zm17.72-7.08h-3.49V182h10.21v2.83h-3.49v8.81H1261v-8.81Zm11.46,3.71V182h3.28v6.47c0,1.68.85,2.48,2.14,2.48s2.14-.76,2.14-2.39V182h3.27v6.45c0,3.76-2.14,5.4-5.45,5.4S1272.5,192.14,1272.5,188.5Zm-28.45,12.13h4.49c4.16,0,6.57,2.39,6.57,5.75v0c0,3.36-2.44,5.85-6.63,5.85h-4.42V200.63Zm4.54,8.78c1.93,0,3.21-1.06,3.21-2.94v0c0-1.86-1.28-2.94-3.21-2.94h-1.31v5.92h1.31Zm12.38-8.78h3.24v11.64H1261V200.63Zm10.16,5.85v0a6.27,6.27,0,0,1,12.53,0v0A6.27,6.27,0,0,1,1271.13,206.48Zm9.24,0v0a3,3,0,0,0-3-3.14,3,3,0,0,0-2.94,3.11v0a3,3,0,0,0,3,3.14A3,3,0,0,0,1280.37,206.48Z" transform="translate(-1243.32 -181.77)"/></svg>